<svg width="1223" height="1199" viewBox="0 0 917.25 899.25" xmlns="http://www.w3.org/2000/svg" xmlns:xlink="http://www.w3.org/1999/xlink">
<g id="graph0" class="graph" transform="translate(309,371.625) scale(1)">
<title>ER</title>
<polygon fill="white" stroke="none" points="-4,4 -4,-94 167.55,-94 167.55,4 -4,4"/>
<!-- old -->
<g id="node1" class="node">
<title>a</title>
<ellipse fill="none" stroke="black" cx="27" cy="-45" rx="27" ry="18"/>
<text text-anchor="middle" x="27" y="-41.7" font-family="Times,serif" font-size="11.00">teA</text>
</g>
<!-- ir -->
<g id="node2" class="node">
<title>b</title>
<ellipse fill="none" stroke="black" cx="136.55" cy="-72" rx="27" ry="18"/>
<text text-anchor="middle" x="136.55" y="-68.7" font-family="Times,serif" font-size="11.00">teB</text>
</g>
<!-- old&#45;&gt;ir -->
<g id="edge1" class="edge">
<title>a-&gt;b</title>
<path fill="none" stroke="black" d="M63.5,-53.91C75.17,-56.84 88.14,-60.1 99.83,-63.03"/>
<polygon fill="black" stroke="black" points="64.69,-50.6 54.14,-51.56 62.99,-57.39 64.69,-50.6"/>
<polygon fill="black" stroke="black" points="98.97,-66.43 109.52,-65.47 100.67,-59.64 98.97,-66.43"/>
<text text-anchor="middle" x="81.77" y="-64.22" font-family="Times,serif" font-size="11.00">relA</text>
</g>
<!-- new -->
<g id="node3" class="node">
<title>c</title>
<ellipse fill="none" stroke="black" cx="136.55" cy="-18" rx="27" ry="18"/>
<text text-anchor="middle" x="136.55" y="-14.7" font-family="Times,serif" font-size="11.00">teC</text>
</g>
<!-- ir&#45;&gt;new -->
<g id="edge2" class="edge">
<title>a-&gt;c</title>
<path fill="none" stroke="black" d="M52.67,-38.81C66.75,-35.27 84.62,-30.78 100.17,-26.88"/>
<polygon fill="black" stroke="black" points="100.67,-30.36 109.52,-24.53 98.97,-23.57 100.67,-30.36"/>
<text text-anchor="middle" x="81.77" y="-37.22" font-family="Times,serif" font-size="11.00">relB</text>
</g>
</g>
</svg>